<svg xmlns="http://www.w3.org/2000/svg" version="1.1" xmlns:xlink="http://www.w3.org/1999/xlink" xmlns:svgjs="http://svgjs.dev/svgjs" width="1000" height="1000"><style>
    #light-icon {
      display: inline;
    }
    #dark-icon {
      display: none;
    }

    @media (prefers-color-scheme: dark) {
      #light-icon {
        display: none;
      }
      #dark-icon {
        display: inline;
      }
    }
  </style><g id="light-icon"><svg xmlns="http://www.w3.org/2000/svg" version="1.1" xmlns:xlink="http://www.w3.org/1999/xlink" xmlns:svgjs="http://svgjs.dev/svgjs" width="1000" height="1000"><g clip-path="url(#SvgjsClipPath1094)"><rect width="1000" height="1000" fill="#ffffff"></rect><g transform="matrix(1.406680795993773,0,0,1.406680795993773,50.21324551308339,50.00000000000006)"><svg xmlns="http://www.w3.org/2000/svg" version="1.1" xmlns:xlink="http://www.w3.org/1999/xlink" xmlns:svgjs="http://svgjs.dev/svgjs" width="639.5008103727715" height="639.804"><svg style="max-height: 500px" viewBox="177.3679092382496 115.588 639.5008103727715 639.804" xmlns="http://www.w3.org/2000/svg" width="639.5008103727715" height="639.804"><defs><clipPath id="SvgjsClipPath1094"><rect width="1000" height="1000" x="0" y="0" rx="500" ry="500"></rect></clipPath></defs><path fill="#0056b2" transform="matrix(1.7390084067938987 0 0 1.7390084067938987 120.49637835403989 -62.14071634200127)" d="M 377.00806122259 288.20285512476 C 374.30806122259 279.30285512476 370.40806122259 271.00285512476 365.60806122259 263.10285512476 C 371.60806122259 252.80285512476 373.80806122259 240.10285512476 372.90806122259 228.30285512476 C 371.20806122259 204.40285512476 353.10806122259 185.70285512476 332.80806122259 175.00285512476 C 324.60806122259 170.70285512476 316.00806122259 167.50285512476 307.00806122259 165.30285512476 C 303.90806122259 153.80285512476 296.50806122259 143.30285512476 287.60806122259 135.50285512476 C 269.50806122259 119.80285512476 243.50806122259 119.40285512476 221.50806122259 126.10285512476 C 212.60806122259 128.80285512476 204.30806122259 132.70285512476 196.40806122259 137.50285512476 C 186.10806122259 131.50285512476 173.40806122259 129.30285512476 161.60806122259 130.20285512476 C 137.70806122259 131.90285512476 119.00806122259 150.00285512476 108.30806122259 170.30285512476 C 104.00806122259 178.50285512476 100.80806122259 187.10285512476 98.60806122259 196.10285512476 C 87.10806122259 199.20285512476 76.60806122259 206.60285512476 68.80806122259 215.50285512476 C 53.10806122259 233.60285512476 52.70806122259 259.60285512476 59.40806122259 281.60285512476 C 62.10806122259 290.50285512476 66.00806122259 298.80285512476 70.80806122259 306.70285512476 C 64.80806122259 317.00285512476 62.60806122259 329.70285512476 63.50806122259 341.50285512476 C 65.20806122259 365.40285512476 83.30806122259 384.10285512476 103.60806122259 394.80285512476 C 111.80806122259 399.10285512476 120.40806122259 402.30285512476 129.40806122259 404.50285512476 C 132.50806122259 416.00285512476 139.90806122259 426.50285512476 148.80806122259 434.30285512476 C 166.90806122259 450.00285512476 192.90806122259 450.40285512476 214.90806122259 443.70285512476 C 223.80806122259 441.00285512476 232.10806122259 437.10285512476 240.00806122259 432.30285512476 C 250.30806122259 438.30285512476 263.00806122259 440.50285512476 274.80806122259 439.60285512476 C 298.70806122259 437.90285512476 317.40806122259 419.80285512476 328.10806122259 399.50285512476 C 332.40806122259 391.30285512476 335.60806122259 382.70285512476 337.80806122259 373.70285512476 C 349.30806122259 370.60285512476 359.80806122259 363.20285512476 367.60806122259 354.30285512476 C 383.30806122259 336.20285512476 383.80806122259 310.20285512476 377.00806122259 288.20285512476 Z M 357.40806122259 353.30285512476 C 352.50806122259 358.90285512476 346.30806122259 364.00285512476 339.30806122259 367.20285512476 C 345.30806122259 335.00285512476 338.30806122259 300.00285512476 322.20806122259 271.70285512476 C 320.10806122259 268.10285512476 317.90806122259 263.80285512476 314.60806122259 259.90285512476 C 309.30806122259 253.50285512476 299.90806122259 253.00285512476 294.40806122259 259.80285512476 C 286.20806122259 269.90285512476 296.40806122259 279.10285512476 301.60806122259 286.80285512476 C 314.50806122259 306.00285512476 321.80806122259 329.10285512476 322.40806122259 352.20285512476 C 323.00806122259 375.80285512476 316.20806122259 400.40285512476 299.20806122259 417.60285512476 C 290.60806122259 426.30285512476 280.50806122259 431.00285512476 268.20806122259 431.80285512476 C 260.80806122259 432.30285512476 252.80806122259 431.50285512476 245.60806122259 428.80285512476 C 272.60806122259 410.20285512476 292.40806122259 380.60285512476 301.10806122259 349.10285512476 C 302.20806122259 345.10285512476 303.60806122259 340.50285512476 304.10806122259 335.30285512476 C 304.90806122259 327.00285512476 298.60806122259 320.00285512476 289.90806122259 320.90285512476 C 277.00806122259 322.30285512476 277.70806122259 336.00285512476 275.90806122259 345.10285512476 C 271.40806122259 367.80285512476 260.30806122259 389.30285512476 244.30806122259 406.10285512476 C 228.00806122259 423.20285512476 205.80806122259 435.80285512476 181.70806122259 435.90285512476 C 169.40806122259 435.90285512476 159.00806122259 432.20285512476 149.80806122259 424.00285512476 C 144.20806122259 419.10285512476 139.10806122259 412.90285512476 135.90806122259 405.90285512476 C 168.10806122259 411.90285512476 203.10806122259 404.90285512476 231.40806122259 388.80285512476 C 235.00806122259 386.70285512476 239.30806122259 384.50285512476 243.20806122259 381.20285512476 C 249.60806122259 375.90285512476 250.10806122259 366.50285512476 243.30806122259 361.00285512476 C 233.20806122259 352.80285512476 224.00806122259 363.00285512476 216.30806122259 368.20285512476 C 197.10806122259 381.10285512476 174.00806122259 388.40285512476 150.90806122259 389.00285512476 C 127.30806122259 389.60285512476 102.70806122259 382.80285512476 85.50806122259 365.80285512476 C 76.80806122259 357.20285512476 72.10806122259 347.10285512476 71.30806122259 334.80285512476 C 70.80806122259 327.40285512476 71.60806122259 319.40285512476 74.30806122259 312.20285512476 C 92.90806122259 339.20285512476 122.50806122259 359.00285512476 154.00806122259 367.70285512476 C 158.00806122259 368.80285512476 162.60806122259 370.20285512476 167.70806122259 370.70285512476 C 176.00806122259 371.50285512476 183.00806122259 365.20285512476 182.10806122259 356.50285512476 C 180.70806122259 343.60285512476 167.00806122259 344.30285512476 157.90806122259 342.50285512476 C 135.20806122259 338.00285512476 113.70806122259 326.90285512476 96.90806122259 311.00285512476 C 79.80806122259 294.70285512476 67.20806122259 272.50285512476 67.10806122259 248.40285512476 C 67.10806122259 236.20285512476 70.80806122259 225.70285512476 79.00806122259 216.50285512476 C 83.90806122259 210.90285512476 90.10806122259 205.80285512476 97.10806122259 202.60285512476 C 91.10806122259 234.80285512476 98.10806122259 269.80285512476 114.20806122259 298.20285512476 C 116.30806122259 301.80285512476 118.50806122259 306.10285512476 121.80806122259 310.00285512476 C 127.10806122259 316.50285512476 136.50806122259 316.90285512476 142.00806122259 310.10285512476 C 150.20806122259 300.00285512476 140.00806122259 290.80285512476 134.80806122259 283.10285512476 C 121.90806122259 263.90285512476 114.60806122259 240.80285512476 114.00806122259 217.70285512476 C 113.40806122259 194.10285512476 120.20806122259 169.50285512476 137.20806122259 152.30285512476 C 145.80806122259 143.60285512476 155.90806122259 138.90285512476 168.20806122259 138.10285512476 C 175.60806122259 137.60285512476 183.60806122259 138.40285512476 190.80806122259 141.10285512476 C 163.80806122259 159.70285512476 144.00806122259 189.30285512476 135.30806122259 220.80285512476 C 134.20806122259 224.80285512476 132.80806122259 229.40285512476 132.30806122259 234.50285512476 C 131.50806122259 242.80285512476 137.80806122259 249.80285512476 146.50806122259 248.90285512476 C 159.40806122259 247.50285512476 158.70806122259 233.80285512476 160.50806122259 224.70285512476 C 165.00806122259 202.00285512476 176.10806122259 180.50285512476 192.00806122259 163.70285512476 C 208.30806122259 146.60285512476 230.50806122259 134.00285512476 254.60806122259 133.90285512476 C 266.90806122259 133.90285512476 277.30806122259 137.60285512476 286.50806122259 145.70285512476 C 292.10806122259 150.60285512476 297.20806122259 156.80285512476 300.40806122259 163.80285512476 C 268.20806122259 157.80285512476 233.20806122259 164.80285512476 204.80806122259 180.90285512476 C 201.20806122259 183.00285512476 196.90806122259 185.20285512476 193.00806122259 188.50285512476 C 186.60806122259 193.80285512476 186.10806122259 203.20285512476 192.90806122259 208.70285512476 C 203.00806122259 216.90285512476 212.20806122259 206.70285512476 219.90806122259 201.50285512476 C 239.10806122259 188.60285512476 262.20806122259 181.30285512476 285.30806122259 180.70285512476 C 308.90806122259 180.10285512476 333.50806122259 186.90285512476 350.70806122259 203.90285512476 C 359.40806122259 212.50285512476 364.10806122259 222.60285512476 364.90806122259 234.90285512476 C 365.40806122259 242.30285512476 364.60806122259 250.30285512476 361.90806122259 257.50285512476 C 343.30806122259 230.50285512476 313.70806122259 210.70285512476 282.20806122259 202.00285512476 C 278.20806122259 200.90285512476 273.60806122259 199.50285512476 268.40806122259 199.00285512476 C 260.10806122259 198.20285512476 253.10806122259 204.50285512476 254.00806122259 213.20285512476 C 255.40806122259 226.10285512476 269.10806122259 225.40285512476 278.20806122259 227.20285512476 C 300.90806122259 231.70285512476 322.40806122259 242.80285512476 339.20806122259 258.70285512476 C 356.30806122259 275.00285512476 368.90806122259 297.20285512476 369.00806122259 321.30285512476 C 369.30806122259 333.60285512476 365.50806122259 344.00285512476 357.40806122259 353.30285512476 Z"></path><path id="text" fill="#02699b" transform="matrix(3.0840349669574834 0 0 3.0840349669574834 0.000000000000029615918136833604 746.2108118586007)" d="M 116.18776944637 22.40370018609 L 116.18776944637 33.65370018609 L 70.25026944637 33.65370018609 L 70.25026944637 22.40370018609 L 116.18776944637 22.40370018609 Z M 162.12526944637 22.40370018609 L 162.12526944637 33.65370018609 L 116.18776944637 33.65370018609 L 116.18776944637 22.40370018609 L 162.12526944637 22.40370018609 Z M 208.06276944637 22.40370018609 L 208.06276944637 33.65370018609 L 162.12526944637 33.65370018609 L 162.12526944637 22.40370018609 L 208.06276944637 22.40370018609 Z M 254.00026944637 22.40370018609 L 254.00026944637 33.65370018609 L 208.06276944637 33.65370018609 L 208.06276944637 22.40370018609 L 254.00026944637 22.40370018609 Z"></path></svg></svg></g></g></svg></g><g id="dark-icon"><svg xmlns="http://www.w3.org/2000/svg" version="1.1" xmlns:xlink="http://www.w3.org/1999/xlink" xmlns:svgjs="http://svgjs.dev/svgjs" width="1000" height="1000"><g clip-path="url(#SvgjsClipPath1095)"><rect width="1000" height="1000" fill="#000000"></rect><g transform="matrix(1.406680795993773,0,0,1.406680795993773,50.21324551308339,50.00000000000006)"><svg xmlns="http://www.w3.org/2000/svg" version="1.1" xmlns:xlink="http://www.w3.org/1999/xlink" xmlns:svgjs="http://svgjs.dev/svgjs" width="639.5008103727715" height="639.804"><svg style="max-height: 500px" viewBox="177.3679092382496 115.588 639.5008103727715 639.804" xmlns="http://www.w3.org/2000/svg" width="639.5008103727715" height="639.804"><defs><clipPath id="SvgjsClipPath1095"><rect width="1000" height="1000" x="0" y="0" rx="500" ry="500"></rect></clipPath></defs><path fill="#0056b2" transform="matrix(1.7390084067938987 0 0 1.7390084067938987 120.49637835403989 -62.14071634200127)" d="M 377.00806122259 288.20285512476 C 374.30806122259 279.30285512476 370.40806122259 271.00285512476 365.60806122259 263.10285512476 C 371.60806122259 252.80285512476 373.80806122259 240.10285512476 372.90806122259 228.30285512476 C 371.20806122259 204.40285512476 353.10806122259 185.70285512476 332.80806122259 175.00285512476 C 324.60806122259 170.70285512476 316.00806122259 167.50285512476 307.00806122259 165.30285512476 C 303.90806122259 153.80285512476 296.50806122259 143.30285512476 287.60806122259 135.50285512476 C 269.50806122259 119.80285512476 243.50806122259 119.40285512476 221.50806122259 126.10285512476 C 212.60806122259 128.80285512476 204.30806122259 132.70285512476 196.40806122259 137.50285512476 C 186.10806122259 131.50285512476 173.40806122259 129.30285512476 161.60806122259 130.20285512476 C 137.70806122259 131.90285512476 119.00806122259 150.00285512476 108.30806122259 170.30285512476 C 104.00806122259 178.50285512476 100.80806122259 187.10285512476 98.60806122259 196.10285512476 C 87.10806122259 199.20285512476 76.60806122259 206.60285512476 68.80806122259 215.50285512476 C 53.10806122259 233.60285512476 52.70806122259 259.60285512476 59.40806122259 281.60285512476 C 62.10806122259 290.50285512476 66.00806122259 298.80285512476 70.80806122259 306.70285512476 C 64.80806122259 317.00285512476 62.60806122259 329.70285512476 63.50806122259 341.50285512476 C 65.20806122259 365.40285512476 83.30806122259 384.10285512476 103.60806122259 394.80285512476 C 111.80806122259 399.10285512476 120.40806122259 402.30285512476 129.40806122259 404.50285512476 C 132.50806122259 416.00285512476 139.90806122259 426.50285512476 148.80806122259 434.30285512476 C 166.90806122259 450.00285512476 192.90806122259 450.40285512476 214.90806122259 443.70285512476 C 223.80806122259 441.00285512476 232.10806122259 437.10285512476 240.00806122259 432.30285512476 C 250.30806122259 438.30285512476 263.00806122259 440.50285512476 274.80806122259 439.60285512476 C 298.70806122259 437.90285512476 317.40806122259 419.80285512476 328.10806122259 399.50285512476 C 332.40806122259 391.30285512476 335.60806122259 382.70285512476 337.80806122259 373.70285512476 C 349.30806122259 370.60285512476 359.80806122259 363.20285512476 367.60806122259 354.30285512476 C 383.30806122259 336.20285512476 383.80806122259 310.20285512476 377.00806122259 288.20285512476 Z M 357.40806122259 353.30285512476 C 352.50806122259 358.90285512476 346.30806122259 364.00285512476 339.30806122259 367.20285512476 C 345.30806122259 335.00285512476 338.30806122259 300.00285512476 322.20806122259 271.70285512476 C 320.10806122259 268.10285512476 317.90806122259 263.80285512476 314.60806122259 259.90285512476 C 309.30806122259 253.50285512476 299.90806122259 253.00285512476 294.40806122259 259.80285512476 C 286.20806122259 269.90285512476 296.40806122259 279.10285512476 301.60806122259 286.80285512476 C 314.50806122259 306.00285512476 321.80806122259 329.10285512476 322.40806122259 352.20285512476 C 323.00806122259 375.80285512476 316.20806122259 400.40285512476 299.20806122259 417.60285512476 C 290.60806122259 426.30285512476 280.50806122259 431.00285512476 268.20806122259 431.80285512476 C 260.80806122259 432.30285512476 252.80806122259 431.50285512476 245.60806122259 428.80285512476 C 272.60806122259 410.20285512476 292.40806122259 380.60285512476 301.10806122259 349.10285512476 C 302.20806122259 345.10285512476 303.60806122259 340.50285512476 304.10806122259 335.30285512476 C 304.90806122259 327.00285512476 298.60806122259 320.00285512476 289.90806122259 320.90285512476 C 277.00806122259 322.30285512476 277.70806122259 336.00285512476 275.90806122259 345.10285512476 C 271.40806122259 367.80285512476 260.30806122259 389.30285512476 244.30806122259 406.10285512476 C 228.00806122259 423.20285512476 205.80806122259 435.80285512476 181.70806122259 435.90285512476 C 169.40806122259 435.90285512476 159.00806122259 432.20285512476 149.80806122259 424.00285512476 C 144.20806122259 419.10285512476 139.10806122259 412.90285512476 135.90806122259 405.90285512476 C 168.10806122259 411.90285512476 203.10806122259 404.90285512476 231.40806122259 388.80285512476 C 235.00806122259 386.70285512476 239.30806122259 384.50285512476 243.20806122259 381.20285512476 C 249.60806122259 375.90285512476 250.10806122259 366.50285512476 243.30806122259 361.00285512476 C 233.20806122259 352.80285512476 224.00806122259 363.00285512476 216.30806122259 368.20285512476 C 197.10806122259 381.10285512476 174.00806122259 388.40285512476 150.90806122259 389.00285512476 C 127.30806122259 389.60285512476 102.70806122259 382.80285512476 85.50806122259 365.80285512476 C 76.80806122259 357.20285512476 72.10806122259 347.10285512476 71.30806122259 334.80285512476 C 70.80806122259 327.40285512476 71.60806122259 319.40285512476 74.30806122259 312.20285512476 C 92.90806122259 339.20285512476 122.50806122259 359.00285512476 154.00806122259 367.70285512476 C 158.00806122259 368.80285512476 162.60806122259 370.20285512476 167.70806122259 370.70285512476 C 176.00806122259 371.50285512476 183.00806122259 365.20285512476 182.10806122259 356.50285512476 C 180.70806122259 343.60285512476 167.00806122259 344.30285512476 157.90806122259 342.50285512476 C 135.20806122259 338.00285512476 113.70806122259 326.90285512476 96.90806122259 311.00285512476 C 79.80806122259 294.70285512476 67.20806122259 272.50285512476 67.10806122259 248.40285512476 C 67.10806122259 236.20285512476 70.80806122259 225.70285512476 79.00806122259 216.50285512476 C 83.90806122259 210.90285512476 90.10806122259 205.80285512476 97.10806122259 202.60285512476 C 91.10806122259 234.80285512476 98.10806122259 269.80285512476 114.20806122259 298.20285512476 C 116.30806122259 301.80285512476 118.50806122259 306.10285512476 121.80806122259 310.00285512476 C 127.10806122259 316.50285512476 136.50806122259 316.90285512476 142.00806122259 310.10285512476 C 150.20806122259 300.00285512476 140.00806122259 290.80285512476 134.80806122259 283.10285512476 C 121.90806122259 263.90285512476 114.60806122259 240.80285512476 114.00806122259 217.70285512476 C 113.40806122259 194.10285512476 120.20806122259 169.50285512476 137.20806122259 152.30285512476 C 145.80806122259 143.60285512476 155.90806122259 138.90285512476 168.20806122259 138.10285512476 C 175.60806122259 137.60285512476 183.60806122259 138.40285512476 190.80806122259 141.10285512476 C 163.80806122259 159.70285512476 144.00806122259 189.30285512476 135.30806122259 220.80285512476 C 134.20806122259 224.80285512476 132.80806122259 229.40285512476 132.30806122259 234.50285512476 C 131.50806122259 242.80285512476 137.80806122259 249.80285512476 146.50806122259 248.90285512476 C 159.40806122259 247.50285512476 158.70806122259 233.80285512476 160.50806122259 224.70285512476 C 165.00806122259 202.00285512476 176.10806122259 180.50285512476 192.00806122259 163.70285512476 C 208.30806122259 146.60285512476 230.50806122259 134.00285512476 254.60806122259 133.90285512476 C 266.90806122259 133.90285512476 277.30806122259 137.60285512476 286.50806122259 145.70285512476 C 292.10806122259 150.60285512476 297.20806122259 156.80285512476 300.40806122259 163.80285512476 C 268.20806122259 157.80285512476 233.20806122259 164.80285512476 204.80806122259 180.90285512476 C 201.20806122259 183.00285512476 196.90806122259 185.20285512476 193.00806122259 188.50285512476 C 186.60806122259 193.80285512476 186.10806122259 203.20285512476 192.90806122259 208.70285512476 C 203.00806122259 216.90285512476 212.20806122259 206.70285512476 219.90806122259 201.50285512476 C 239.10806122259 188.60285512476 262.20806122259 181.30285512476 285.30806122259 180.70285512476 C 308.90806122259 180.10285512476 333.50806122259 186.90285512476 350.70806122259 203.90285512476 C 359.40806122259 212.50285512476 364.10806122259 222.60285512476 364.90806122259 234.90285512476 C 365.40806122259 242.30285512476 364.60806122259 250.30285512476 361.90806122259 257.50285512476 C 343.30806122259 230.50285512476 313.70806122259 210.70285512476 282.20806122259 202.00285512476 C 278.20806122259 200.90285512476 273.60806122259 199.50285512476 268.40806122259 199.00285512476 C 260.10806122259 198.20285512476 253.10806122259 204.50285512476 254.00806122259 213.20285512476 C 255.40806122259 226.10285512476 269.10806122259 225.40285512476 278.20806122259 227.20285512476 C 300.90806122259 231.70285512476 322.40806122259 242.80285512476 339.20806122259 258.70285512476 C 356.30806122259 275.00285512476 368.90806122259 297.20285512476 369.00806122259 321.30285512476 C 369.30806122259 333.60285512476 365.50806122259 344.00285512476 357.40806122259 353.30285512476 Z"></path><path id="text" fill="#02699b" transform="matrix(3.0840349669574834 0 0 3.0840349669574834 0.000000000000029615918136833604 746.2108118586007)" d="M 116.18776944637 22.40370018609 L 116.18776944637 33.65370018609 L 70.25026944637 33.65370018609 L 70.25026944637 22.40370018609 L 116.18776944637 22.40370018609 Z M 162.12526944637 22.40370018609 L 162.12526944637 33.65370018609 L 116.18776944637 33.65370018609 L 116.18776944637 22.40370018609 L 162.12526944637 22.40370018609 Z M 208.06276944637 22.40370018609 L 208.06276944637 33.65370018609 L 162.12526944637 33.65370018609 L 162.12526944637 22.40370018609 L 208.06276944637 22.40370018609 Z M 254.00026944637 22.40370018609 L 254.00026944637 33.65370018609 L 208.06276944637 33.65370018609 L 208.06276944637 22.40370018609 L 254.00026944637 22.40370018609 Z"></path></svg></svg></g></g></svg></g></svg>